<svg xmlns="http://www.w3.org/2000/svg" width="512" height="512" fill-rule="evenodd" clip-rule="evenodd" image-rendering="optimizeQuality" shape-rendering="geometricPrecision" text-rendering="geometricPrecision" viewBox="0 0 512 512" id="agreement">
  <defs>
    <linearGradient id="a" x1="214.85" x2="297.12" y1="6.94" y2="505.06" gradientUnits="userSpaceOnUse">
      <stop offset="0" stop-color="#1e8ac6"></stop>
      <stop offset=".302" stop-color="#834fbc"></stop>
      <stop offset="1" stop-color="#e813b1"></stop>
    </linearGradient>
  </defs>
  <path fill="url(#a)" fill-rule="nonzero" d="M458.64 87.46l34.5 19.92c2.93,1.7 3.89,5.4 1.98,8.49l-7.15 12.39 21.03 12.14c2.94,1.69 3.9,5.4 1.99,8.49l-52.93 91.66c-3.92,6.82 -14.27,0.85 -10.35,-5.95l50.12 -86.83 -15.84 -9.15 -86.41 149.7 0 129.32c0,16.67 -13.68,30.34 -30.35,30.34l-18.85 0c0,15.55 2.22,29.54 -8.95,40.31 -5.5,5.49 -13.08,8.89 -21.39,8.89l-285.7 0c-16.67,0 -30.34,-13.67 -30.34,-30.34l0 -372.48c0,-16.7 13.67,-30.34 30.34,-30.34l18.86 0c0,-15.34 -2.24,-30.14 9.27,-40.63 5.47,-5.3 12.91,-8.57 21.07,-8.57l285.69 0c8.33,0 15.92,3.41 21.43,8.92l0.01 -0.01c5.49,5.49 8.91,13.08 8.91,21.43l0 139.57 54.88 -95.06c1.67,-2.9 5.42,-3.85 8.17,-2.19l0.01 -0.02zm-196.87 -22.65l92.27 0c3.31,0 6,2.68 6,6l0 92.27c0,3.31 -2.69,6 -6,6l-92.27 0c-3.31,0 -6,-2.69 -6,-6l0 -92.27c0,-3.32 2.69,-6 6,-6zm86.27 12l-80.27 0 0 80.27 80.27 0 0 -80.27zm-157.85 -49.99l0 58.09c0,4.98 -5.94,8.13 -10.15,4.33l-23.98 -20.23 -23.17 20.4c-3.88,3.42 -9.96,0.62 -9.96,-4.5l0 0 0 -58.09 -43.39 0c-10.12,0 -18.34,8.28 -18.34,18.34l0 372.48c0,10.08 8.26,18.34 18.34,18.34l285.69 0c10.11,0 18.35,-8.23 18.35,-18.34l0 -108.54 -36.22 62.73 -1.78 1.88 -26.47 19.1 34.93 0c7.9,0 7.9,12 0,12l-263.31 0c-7.9,0 -7.9,-12 0,-12l204.67 0c0.88,-6.21 5.66,-44.54 7.27,-47.19l59.26 -102.65 21.65 -37.46 0 -160.35c0,-5.04 -2.07,-9.62 -5.4,-12.95l0.01 -0.01c-3.32,-3.32 -7.89,-5.38 -12.96,-5.38l-175.04 0zm-55.26 0l0 44.82 17.08 -15.04 0 0.01c2.2,-1.94 5.53,-2.02 7.83,-0.08l18.35 15.49 0 -45.2 -43.26 0zm-44.2 95.11c-7.9,0 -7.9,-12 0,-12l131.66 0c7.89,0 7.89,12 0,12l-131.66 0zm0.84 47.15c-7.9,0 -7.9,-12 0,-12l130.82 0c7.9,0 7.9,12 0,12l-130.82 0zm-0.84 47.14c-7.9,0 -7.9,-12 0,-12l263.31 0c7.9,0 7.9,12 0,12l-263.31 0zm0 47.15c-7.9,0 -7.9,-12 0,-12l242.58 0c7.9,0 7.9,12 0,12l-242.58 0zm0 47.15c-7.9,0 -7.9,-12 0,-12l216.59 0c7.9,0 7.9,12 0,12l-216.59 0zm0 47.15c-7.9,0 -7.9,-12 0,-12l186.93 0c7.9,0 7.9,12 0,12l-186.93 0zm293.44 -73.53l9.27 -16.06 -24.14 -13.93 -53.4 92.49 24.14 13.93 44.13 -76.43zm-49.79 163.84l-254.84 0c-16.7,0 -30.34,-13.64 -30.34,-30.34l0 -341.62c-12.92,0 -24.35,-2.07 -31.81,5.39 -3.32,3.32 -5.39,7.91 -5.39,12.95l0 372.48c0,10.11 8.23,18.34 18.34,18.34l285.7 0c10.1,0 18.34,-8.23 18.34,-18.34l0 -18.86zm60.65 -238.42l-19.75 34.22 24.15 13.94 82.54 -142.96 -24.15 -13.95 -62.79 108.75zm-63.8 159.75l-18.83 -10.87 -3.89 27.28 22.72 -16.41z"></path>
</svg>
