<svg xmlns="http://www.w3.org/2000/svg" viewBox="0 0 24 24" id="online-support">
  <defs>
    <linearGradient id="a" x1="2.511" x2="17.622" y1="19.489" y2="4.378" gradientUnits="userSpaceOnUse">
      <stop offset="0" stop-color="#5433ff"></stop>
      <stop offset="1" stop-color="#20bdff"></stop>
    </linearGradient>
  </defs>
  <path fill="url(#a)" d="m17.75,12.409c0,.414-.336.75-.75.75h-6c-.414,0-.75-.336-.75-.75s.336-.75.75-.75h6c.414,0,.75.336.75.75Zm3-4v5.195c0,1.19-.952,2.159-2.122,2.159h-1.878v3.236c0,1.517-1.104,2.75-2.46,2.75H5.71c-1.356,0-2.46-1.233-2.46-2.75V5c0-1.517,1.104-2.75,2.46-2.75h8.58c1.356,0,2.46,1.233,2.46,2.75v1.25h1.878c1.17,0,2.122.969,2.122,2.159Zm-5.5,7.354h-3.894l-2.32,1.92c-.201.166-.444.251-.691.251-.157,0-.315-.034-.465-.104-.389-.184-.63-.566-.63-.999v-8.422c0-1.19.952-2.159,2.122-2.159h5.878v-1.25c0-.678-.439-1.25-.96-1.25H5.71c-.521,0-.96.572-.96,1.25v14c0,.678.439,1.25.96,1.25h8.58c.521,0,.96-.572.96-1.25v-3.236Zm4-7.354c0-.363-.279-.659-.622-.659h-9.257c-.343,0-.622.296-.622.659v7.564l1.764-1.46c.191-.16.438-.25.693-.25h7.422c.343,0,.622-.296.622-.659v-5.195Zm-2.25.25h-6c-.414,0-.75.336-.75.75s.336.75.75.75h6c.414,0,.75-.336.75-.75s-.336-.75-.75-.75Z"></path>
</svg>
