<svg xmlns="http://www.w3.org/2000/svg" width="163.839" height="163.839" fill-rule="evenodd" clip-rule="evenodd" image-rendering="optimizeQuality" shape-rendering="geometricPrecision" text-rendering="geometricPrecision" viewBox="0 0 4335 4335" id="article">
  <defs>
    <linearGradient id="a" x1="1862.19" x2="2472.73" y1="205.68" y2="4129.22" gradientUnits="userSpaceOnUse">
      <stop offset="0" stop-color="#1e8ac6"></stop>
      <stop offset=".302" stop-color="#834fbc"></stop>
      <stop offset="1" stop-color="#e813b1"></stop>
    </linearGradient>
  </defs>
  <path fill="url(#a)" fill-rule="nonzero" d="M806 4063c-67,0 -67,-102 0,-102l509 0 177 -332 1351 0 177 332 509 0c67,0 67,102 0,102l-2723 0zm793 -635l-80 150 1297 0 -80 -150 1178 0c231,0 420,-189 421,-421l0 -2022c0,-232 -189,-421 -421,-421l-647 0c0,-93 12,-170 -55,-237 -34,-34 -81,-55 -132,-55l-1825 0c-51,0 -98,21 -132,55l0 0c-67,68 -55,143 -55,237l-647 0c-232,0 -421,189 -421,421l0 2027c1,226 190,416 421,416l1178 0zm1668 -2762l647 0c176,0 319,143 319,319l0 1977 -4131 0 0 -1977c0,-176 143,-319 319,-319l647 0 0 1981c0,103 84,187 187,187l1825 0c103,0 187,-84 187,-187l0 -1981zm-1888 507l1577 0c33,0 33,51 0,51l-1577 0c-33,0 -33,-51 0,-51zm0 273l1577 0c33,0 33,51 0,51l-1577 0c-33,0 -33,-51 0,-51zm0 272l1577 0c33,0 33,51 0,51l-1577 0c-33,0 -33,-51 0,-51zm0 273l1577 0c33,0 33,50 0,50l-1577 0c-33,0 -33,-50 0,-50zm0 272l1577 0c33,0 33,51 0,51l-1577 0c-33,0 -33,-51 0,-51zm0 272l1577 0c33,0 33,51 0,51l-1577 0c-33,0 -33,-51 0,-51zm221 -1577l0 0zm421 24l-250 0c-14,0 -26,-11 -26,-25l0 -412c0,-14 12,-25 26,-25l250 0c33,0 33,51 0,51l-225 0 0 155 220 0c33,0 33,50 0,50l-220 0 0 155 225 0c33,0 33,51 0,51zm-421 -435l0 411c0,25 -32,35 -46,14l-232 -343 0 329c0,33 -51,33 -51,0l0 -411c0,-25 33,-37 47,-13l231 341 0 -328c0,-34 51,-34 51,0zm837 80l-109 337c-8,25 -43,23 -49,-1l-109 -408c-9,-32 40,-45 49,-13l87 326 107 -331c8,-23 41,-23 48,0l108 331 87 -326c9,-32 58,-19 49,13l-109 408c-7,24 -41,25 -49,2l-110 -338zm589 -70l0 0zm-35 36l0 0zm35 351l0 0zm-35 -35l0 0zm-184 -261c0,-171 257,-166 257,0 0,33 -51,33 -51,0 0,-101 -155,-103 -155,0 0,128 206,25 206,206 0,166 -257,171 -257,0 0,-34 51,-34 51,0 0,103 155,101 155,0 0,-129 -206,-25 -206,-206z"></path>
</svg>
